<?xml version="1.0" encoding="UTF-8"?>
<svg id="Logo" xmlns="http://www.w3.org/2000/svg" version="1.1" viewBox="0 0 260 61.33">
  <!-- Generator: Adobe Illustrator 29.5.0, SVG Export Plug-In . SVG Version: 2.1.0 Build 137)  -->
  <defs>
    <style>
      .st0 {
        fill: #258583;
      }
    </style>
  </defs>
  <g id="_結構">
    <g>
      <path class="st0" d="M58.1,16.9v29.63c0,2.34-1.89,4.23-4.23,4.23h-5.83c-1.58,0-2.96-.87-3.68-2.15v-.02l-.21-.42-.02-.05v-.02l-2.82-5.81-3.06-6.35-4.08-8.46-3.05-6.34-.08-.18-.43-.89v30.66h-8.45V16.92c0-2.34,1.89-4.23,4.23-4.23h5.82c1.61,0,3,.9,3.71,2.21l.2.41,2.81,5.84,3.05,6.34,4.07,8.46,3.05,6.35.08.16.47.97V12.69h4.66c2.13.21,3.8,2.02,3.8,4.21h0Z"/>
      <path class="st0" d="M237.84,16.92v33.84h-8.46v-29.61l-1.81,6.34-2.42,8.46-1.81,6.35-2.42,8.46h-12.69l-2.42-8.46-1.81-6.35-2.42-8.46-1.81-6.34v29.61h-8.45V16.92c0-2.34,1.89-4.23,4.22-4.23h7.4c1.85,0,3.42,1.19,3.99,2.85l.15.53,1.45,5.08,1.81,6.34,2.42,8.46,1.81,6.35,1.81-6.35,2.42-8.46,1.81-6.34,1.54-5.42.03-.11c.56-1.7,2.14-2.94,4.03-2.94h7.38c2.34,0,4.23,1.89,4.23,4.23h0Z"/>
      <path class="st0" d="M148.53,47.87c-2.92,1.83-6.37,2.88-10.07,2.88-6.6,0-12.41-3.36-15.83-8.46-1.27-1.9-2.21-4.04-2.72-6.35-.31-1.35-.48-2.78-.48-4.23s.17-2.87.48-4.23c.52-2.31,1.45-4.44,2.72-6.34,3.42-5.11,9.24-8.46,15.83-8.46,3.68,0,7.11,1.04,10.02,2.85-1.4,1.7-2.58,3.58-3.51,5.61-.26.57-.5,1.14-.72,1.73-1.67-1.1-3.65-1.73-5.8-1.73-4.34,0-8.06,2.61-9.69,6.34-.57,1.29-.88,2.72-.88,4.23s.31,2.93.88,4.23c1.63,3.74,5.36,6.35,9.69,6.35,2.15,0,4.15-.64,5.83-1.74.22.59.47,1.18.73,1.74.94,2.02,2.12,3.89,3.52,5.57h0Z"/>
      <path class="st0" d="M128.57,59.74c0,.88-.71,1.59-1.58,1.59h-6.73c-.48,0-.91-.21-1.21-.55l-.02-.03-.14-.21-.02-.04-6.72-9.74-5.84-8.46-2.74-3.97,1.64-2.38,3.65-5.29,3.64,5.29,4.38,6.35,5.84,8.46,5.49,7.97.09.13c.17.24.27.56.27.88h0Z"/>
      <path class="st0" d="M103.57,22.99l-3.1,4.49-2.19,3.18-2.18-3.18-4.38-6.34h-29.39v-6.34c0-1.17.95-2.12,2.12-2.12h21.43l-7.04-10.21c-.17-.25-.27-.56-.27-.89C78.59.72,79.29,0,80.17,0h6.73c.3,0,.59.08.83.24.15.09.28.2.4.33h0l.13.19,8.22,11.92,5.84,8.46,1.28,1.85h0Z"/>
      <path class="st0" d="M103.57,38.33l-2.75,3.97-5.35,7.76c-.28.43-.77.7-1.32.7h-29.71c-1.17,0-2.12-.95-2.12-2.12v-19.03c0-1.17.95-2.12,2.12-2.12h23.26v8.46h-16.91v6.35h19.46l4.38-6.35,3.64-5.28,3.64,5.28,1.64,2.38v-.02Z"/>
      <path class="st0" d="M119.82,14.27c0,.31-.09.6-.24.84l-.12.18-4.03,5.86-4.38,6.34-2.18,3.17-2.18-3.17-3.1-4.49,1.28-1.85,5.25-7.61.02-.02h0l.2-.3v-.02c.3-.32.72-.53,1.19-.53h6.73c.88,0,1.58.71,1.58,1.59h0Z"/>
      <path class="st0" d="M186.63,27.49c-.51-2.3-1.44-4.44-2.71-6.34-3.17-4.77-8.45-8.03-14.49-8.46h-2.73c-5.43.38-10.23,3.04-13.45,7.04-.37.46-.72.93-1.04,1.42-1.27,1.9-2.19,4.04-2.7,6.34-.31,1.34-.47,2.75-.47,4.18v.05c0,1.45.18,2.87.49,4.23.53,2.31,1.47,4.45,2.75,6.35.31.47.65.93,1,1.36,3.49,4.3,8.82,7.04,14.78,7.04,6.57,0,12.37-3.33,15.79-8.41,1.29-1.89,2.23-4.04,2.76-6.35.32-1.37.49-2.81.49-4.28s-.16-2.85-.47-4.18v.02ZM177.73,35.95c-1.64,3.71-5.35,6.29-9.67,6.29s-8.03-2.59-9.67-6.29c-.57-1.29-.9-2.72-.91-4.23v-.05c0-1.48.3-2.9.86-4.18,1.48-3.45,4.76-5.94,8.63-6.34.36-.04.72-.05,1.08-.05s.72.02,1.08.05c3.89.4,7.14,2.89,8.63,6.34.56,1.29.87,2.7.87,4.18s-.32,2.97-.91,4.28h.02Z"/>
    </g>
  </g>
</svg>